<svg width="560" height="1180" viewBox="0 0 560 1180" fill="none" xmlns="http://www.w3.org/2000/svg">
<path d="M185.794 813.047C182.05 817.54 180 823.203 180 829.051V1155C180 1168.81 168.807 1180 155 1180H25C11.1929 1180 0 1168.81 0 1155V725C0 711.193 11.1929 700 25 700H226.624C247.82 700 259.399 724.721 245.829 741.005L185.794 813.047Z" fill="black"/>
<path d="M560 1155C560 1168.81 548.807 1180 535 1180H405C391.193 1180 380 1168.81 380 1155V725C380 711.193 391.193 700 405 700H535C548.807 700 560 711.193 560 725V1155Z" fill="black"/>
<path d="M180 435C180 448.807 168.807 460 155 460H25C11.1929 460 0 448.807 0 435V25C0 11.1929 11.1929 0 25 0H155C168.807 0 180 11.1929 180 25V435Z" fill="black"/>
<rect y="480" width="560" height="200" rx="25" fill="#83C8E5"/>
</svg>
