<svg width="560" height="880" viewBox="0 0 560 880" fill="none" xmlns="http://www.w3.org/2000/svg">
<path d="M560 535C560 548.807 548.807 560 535 560H181C167.193 560 156 571.193 156 585V678C156 691.807 167.193 703 181 703H504.642C526.163 703 537.627 728.385 523.397 744.53L411.465 871.53C406.719 876.915 399.888 880 392.71 880H167.29C160.112 880 153.281 876.915 148.535 871.53L6.24478 710.085C2.2204 705.519 0 699.642 0 693.555V425C0 411.193 11.1929 400 25 400H535C548.807 400 560 411.193 560 425V535ZM518.609 117.548C534.051 133.386 522.829 160 500.709 160H59.2912C37.1708 160 25.949 133.386 41.3912 117.547L148.641 7.54749C153.346 2.72156 159.801 0 166.541 0H393.459C400.199 0 406.654 2.72156 411.359 7.5475L518.609 117.548Z" fill="black"/>
<rect y="180" width="560" height="200" rx="25" fill="#83C8E5"/>
</svg>
