<svg width="380" height="880" viewBox="0 0 380 880" fill="none" xmlns="http://www.w3.org/2000/svg">
<path d="M185.794 513.047C182.05 517.54 180 523.203 180 529.051V855C180 868.807 168.807 880 155 880H25C11.1929 880 0 868.807 0 855V425C0 411.193 11.1929 400 25 400H226.624C247.82 400 259.399 424.721 245.829 441.005L185.794 513.047Z" fill="black"/>
<path d="M180 50.9488C180 74.3312 209.236 84.9162 224.206 66.9534L272.504 8.99538C277.254 3.29556 284.29 0 291.709 0H355C368.807 0 380 11.1929 380 25V135C380 148.807 368.807 160 355 160H25C11.1929 160 0 148.807 0 135V25C0 11.1929 11.1929 0 25 0H155C168.807 0 180 11.1929 180 25V50.9488Z" fill="black"/>
<rect y="180" width="380" height="200" rx="25" fill="#83C8E5"/>
</svg>
