<svg width="680" height="1180" viewBox="0 0 680 1180" fill="none" xmlns="http://www.w3.org/2000/svg">
<path d="M190 1155C190 1168.81 178.807 1180 165 1180H25C11.1929 1180 0 1168.81 0 1155V725C0 711.193 11.1929 700 25 700H165C178.807 700 190 711.193 190 725V1155Z" fill="black"/>
<path d="M680 1155C680 1168.81 668.807 1180 655 1180H515C501.193 1180 490 1168.81 490 1155V725C490 711.193 501.193 700 515 700H655C668.807 700 680 711.193 680 725V1155Z" fill="black"/>
<path d="M468.941 0C475.984 0 482.701 2.97132 487.439 8.18318L673.499 212.848C677.682 217.45 680 223.446 680 229.665V435C680 448.807 668.807 460 655 460H515C501.193 460 490 448.807 490 435V429.051C490 423.203 487.95 417.54 484.206 413.047L397.496 308.995C392.746 303.296 385.71 300 378.291 300H301.709C294.29 300 287.254 303.296 282.504 308.995L195.794 413.047C192.05 417.54 190 423.203 190 429.051V435C190 448.807 178.807 460 165 460H25C11.1929 460 0 448.807 0 435V229.665C0 223.446 2.31804 217.45 6.5015 212.848L192.561 8.18317C197.299 2.97131 204.016 0 211.059 0H468.941Z" fill="black"/>
<rect y="480" width="680" height="200" rx="25" fill="#83C8E5"/>
</svg>
